<svg xmlns="http://www.w3.org/2000/svg" width="22px" height="22px" viewBox="0 0 22 22"><path style="line-height:normal;font-variant-ligatures:normal;font-variant-position:normal;font-variant-caps:normal;font-variant-numeric:normal;font-variant-alternates:normal;font-feature-settings:normal;text-indent:0;text-align:start;text-decoration-line:none;text-decoration-style:solid;text-decoration-color:#000;text-transform:none;text-orientation:mixed;shape-padding:0;isolation:auto;mix-blend-mode:normal" d="M 10.099609,0 C 7.8368588,0 6,1.8368581 6,4.0996094 V 7 H 4.5 A 0.50004997,0.50004997 0 0 0 4.0195312,7.3632812 L 0.01953125,21.363281 A 0.50004997,0.50004997 0 0 0 0.5,22 H 13 a 0.50004997,0.50004997 0 1 0 0,-1 H 1.1621094 L 4.8769531,8 H 6 v 1.9003906 a 0.50005,0.50005 0 1 0 1,0 V 8 h 8 v 1.9003906 a 0.50005,0.50005 0 1 0 1,0 V 8 h 1.123047 l 1.896484,6.636719 a 0.50004997,0.50004997 0 1 0 0.960938,-0.273438 l -2,-6.9999998 A 0.50004997,0.50004997 0 0 0 17.5,7 H 16 V 4.0996094 C 16,1.8368581 14.163142,0 11.900391,0 Z m 0,1 h 1.800782 C 13.626439,1 15,2.3735609 15,4.0996094 V 7 H 7 V 4.0996094 C 7,2.3735609 8.3735616,1 10.099609,1 Z M 16.5,15 C 16.223,15 16,15.223 16,15.5 v 2 h -2 c -0.277,0 -0.5,0.223 -0.5,0.5 0,0.277 0.223,0.5 0.5,0.5 h 2 v 2 c 0,0.277 0.223,0.5 0.5,0.5 0.277,0 0.5,-0.223 0.5,-0.5 v -2 h 2 c 0.277,0 0.5,-0.223 0.5,-0.5 0,-0.277 -0.223,-0.5 -0.5,-0.5 h -2 v -2 C 17,15.223 16.777,15 16.5,15 Z" color="#000" font-weight="400" font-family="sans-serif" white-space="normal" overflow="visible" fill="#fff" paint-order="markers stroke fill" enable-background="accumulate"/></svg>