<svg xmlns="http://www.w3.org/2000/svg" width="22px" height="22px" viewBox="0 0 22 22"><path d="M 5.125818,1.7175685 C 2.4459897,3.2643987 2.5532727,8.4313047 5.3663628,13.302558 l 1.015556,1.758575 c 2.8130902,4.871253 7.2351872,7.547594 9.9150142,6.000763 l 1.758995,-1.015314 c 0.730862,-0.421863 0.979543,-1.349729 0.557579,-2.080417 l -2.031112,-3.51715 c -0.421963,-0.730688 -1.350051,-0.979309 -2.080913,-0.557446 l -1.971998,1.138263 C 11.903892,14.28084 11.311814,13.444787 10.779406,12.522848 L 9.7638501,10.764274 C 9.2314411,9.8423347 8.8032642,8.9116757 8.4672602,7.9955297 l 1.9719978,-1.138263 c 0.730862,-0.421862 0.979543,-1.349728 0.557579,-2.080416 L 8.9657255,1.2597006 C 8.543762,0.52901262 7.6156748,0.28039172 6.8848125,0.70225462 Z" fill="none" stroke="#fff" stroke-linecap="round" stroke-linejoin="round" paint-order="markers stroke fill"/></svg>