<svg xmlns="http://www.w3.org/2000/svg" width="30px" height="30px" viewBox="0 0 30 30"><path style="line-height:normal;font-variant-ligatures:normal;font-variant-position:normal;font-variant-caps:normal;font-variant-numeric:normal;font-variant-alternates:normal;font-feature-settings:normal;text-indent:0;text-align:start;text-decoration-line:none;text-decoration-style:solid;text-decoration-color:#000;text-transform:none;text-orientation:mixed;shape-padding:0;isolation:auto;mix-blend-mode:normal" d="M 2.0000167,4 C 1.7238765,4.0000276 1.5000276,4.2238691 1.5,4.5 V 7 C 1.49044,7.6761583 2.5095933,7.6761583 2.5000334,7 V 5 h 2.8985343 l 5.1349373,13.681641 c 0.07499,0.192283 0.260417,0.31874 0.466812,0.318359 h 14.000468 c 0.211805,-4.09e-4 0.400379,-0.134206 0.470719,-0.333984 L 28.472,9.666 C 28.586305,9.3411388 28.344394,9.0006894 28,9 H 12.000351 c -0.676181,-0.00956 -0.676181,1.00956 0,1 h 15.295433 l -2.648527,8 H 11.342126 L 6.2052353,4.318 C 6.1305021,4.1263813 5.946058,4.0004239 5.7403761,4 Z M 14.500434,20 c -1.374836,0 -2.500083,1.12521 -2.500083,2.5 0,1.37479 1.125247,2.5 2.500083,2.5 1.374836,0 2.500084,-1.12521 2.500084,-2.5 0,-1.37479 -1.125248,-2.5 -2.500084,-2.5 z m 7.000234,0 c -1.374836,0 -2.500083,1.12521 -2.500083,2.5 0,1.37479 1.125247,2.5 2.500083,2.5 1.374836,0 2.500084,-1.12521 2.500084,-2.5 0,-1.37479 -1.125248,-2.5 -2.500084,-2.5 z m -7.000234,1 c 0.834377,0 1.50005,0.665651 1.50005,1.5 0,0.834349 -0.665673,1.5 -1.50005,1.5 -0.834377,0 -1.50005,-0.665651 -1.50005,-1.5 0,-0.834349 0.665673,-1.5 1.50005,-1.5 z m 7.000234,0 c 0.834377,0 1.50005,0.665651 1.50005,1.5 0,0.834349 -0.665673,1.5 -1.50005,1.5 -0.834377,0 -1.50005,-0.665651 -1.50005,-1.5 0,-0.834349 0.665673,-1.5 1.50005,-1.5 z" color="#000" font-weight="400" font-family="sans-serif" white-space="normal" overflow="visible" fill="#fff" enable-background="accumulate"/></svg>