<svg xmlns="http://www.w3.org/2000/svg" width="22px" height="22px" viewBox="0 0 22 22"><path style="line-height:normal;font-variant-ligatures:normal;font-variant-position:normal;font-variant-caps:normal;font-variant-numeric:normal;font-variant-alternates:normal;font-feature-settings:normal;text-indent:0;text-align:start;text-decoration-line:none;text-decoration-style:solid;text-decoration-color:#000;text-transform:none;text-orientation:mixed;shape-padding:0;isolation:auto;mix-blend-mode:normal" d="M 19.931813,2.0681862 C 19.620394,1.7567679 19.180973,1.5672037 18.705424,1.5737639 l -7.5793,0.1049612 c -0.259802,0.00358 -0.494881,0.072426 -0.698821,0.1657281 -0.164936,0.065347 -0.33453,0.1632781 -0.4792302,0.3079781 l -0.044194,0.044194 -9.49484206,9.4948427 c -0.53370721,0.533707 -0.55126071,1.41538 -0.0165728,1.950068 l 7.96599936,7.965999 c 0.5346887,0.534689 1.416361,0.517135 1.9500687,-0.01657 l 9.494841,-9.494842 0.04419,-0.0442 c 0.1447,-0.144699 0.242631,-0.314299 0.307978,-0.47923 0.0933,-0.203939 0.163526,-0.437651 0.16711,-0.69744 l 0.10358,-7.5806814 C 20.432831,2.8190233 20.243228,2.3796022 19.931809,2.0681832 Z M 19.224706,2.775293 c 0.126682,0.1266817 0.204467,0.3002404 0.201636,0.5054709 l -0.103581,7.5806821 c -0.0014,0.09977 -0.02765,0.200407 -0.07734,0.306597 a 0.50005,0.50005 0 0 0 -0.01519,0.03177 c -0.02358,0.06152 -0.05084,0.106077 -0.08977,0.145011 l -0.04419,0.04419 -9.4948422,9.494842 c -0.1642977,0.164298 -0.3915307,0.160896 -0.5358547,0.01657 L 1.0995746,12.934427 C 0.95525149,12.790104 0.95184974,12.56287 1.1161474,12.398573 l 9.4948376,-9.4948407 0.0442,-0.044194 c 0.03893,-0.038933 0.08349,-0.066189 0.145012,-0.089769 a 0.50005,0.50005 0 0 0 0.03177,-0.015192 c 0.106195,-0.049689 0.206833,-0.075964 0.306597,-0.077341 l 7.580682,-0.10358 c 0.205229,-0.00283 0.37879,0.074955 0.505471,0.2016359 z m -2.121321,2.1213203 c -0.77686,-0.7768609 -2.051566,-0.7768609 -2.828427,0 -0.776861,0.7768609 -0.776861,2.0515663 0,2.8284272 0.776861,0.7768607 2.051567,0.7768608 2.828427,0 0.776861,-0.7768609 0.776861,-2.0515664 0,-2.8284272 z m -0.707106,0.7071068 c 0.394712,0.394712 0.394712,1.0195015 0,1.4142136 -0.394712,0.394712 -1.019502,0.3947119 -1.414214,0 -0.394712,-0.394712 -0.394712,-1.0195016 0,-1.4142136 0.394712,-0.394712 1.019502,-0.3947119 1.414214,0 z" color="#000" font-weight="400" font-family="sans-serif" white-space="normal" overflow="visible" fill="#fff" paint-order="markers stroke fill" enable-background="accumulate"/></svg>