<svg xmlns="http://www.w3.org/2000/svg" width="24px" height="24px" viewBox="0 0 24 24"><path style="line-height:normal;font-variant-ligatures:normal;font-variant-position:normal;font-variant-caps:normal;font-variant-numeric:normal;font-variant-alternates:normal;font-feature-settings:normal;text-indent:0;text-align:start;text-decoration-line:none;text-decoration-style:solid;text-decoration-color:#000;text-transform:none;text-orientation:mixed;shape-padding:0;isolation:auto;mix-blend-mode:normal" d="m 14.466425,0.999999 c -4.7066445,0 -8.5335736,3.828742 -8.5335736,8.5376182 0,4.7088758 3.826929,8.5376178 8.5335736,8.5376178 C 19.173071,18.075235 23,14.246493 23,9.5376172 23,4.828741 19.173071,0.999999 14.466425,0.999999 Z m 0,1.0672023 c 4.13016,0 7.466878,3.3382987 7.466878,7.4704159 0,4.1321168 -3.336718,7.4704148 -7.466878,7.4704148 -4.13016,0 -7.4668767,-3.338298 -7.4668767,-7.4704148 0,-4.1321172 3.3367167,-7.4704159 7.4668767,-7.4704159 z M 6.8953787,16.551554 a 0.5334017,0.53365444 0 0 0 -0.3666771,0.162581 l -5.3647349,5.367277 a 0.5334017,0.53365444 0 1 0 0.754188,0.754546 L 7.2849728,17.468681 A 0.5334017,0.53365444 0 0 0 6.8953787,16.551554 Z" color="#000" font-weight="400" font-family="sans-serif" white-space="normal" overflow="visible" paint-order="markers stroke fill" enable-background="accumulate"/></svg>